<svg width="35" height="36" viewBox="0 0 35 36" fill="none" xmlns="http://www.w3.org/2000/svg">
<path fill-rule="evenodd" clip-rule="evenodd" d="M9.72794 35.1002C4.24197 35.1002 0.435211 31.04 0.435211 25.5674V0.0394897H25.303C30.6987 0.0394897 34.7684 4.36414 34.7684 9.74974V35.1002H9.72794ZM30.7697 9.74974C30.7697 7.13658 29.059 4.4134 25.303 4.4134H4.34638V25.5674C4.34638 28.0681 5.69122 30.7272 9.72794 30.7272H25.5288L14.7893 18.4461C14.4793 18.0354 14.2948 17.5222 14.2948 16.9668C14.2948 15.6149 15.3843 14.5187 16.7285 14.5187C17.2424 14.5187 17.7203 14.6788 18.1137 14.9527L30.7697 24.8574V9.74974ZM10.4178 13.799C8.84596 13.799 7.56637 12.4754 7.56637 10.8938C7.56637 9.31168 8.84596 8.02429 10.4178 8.02429C11.9913 8.02429 13.3076 9.31168 13.3076 10.8938C13.3076 12.4754 11.9913 13.799 10.4178 13.799Z" fill="#79AD36"/>
</svg>
